<svg height="32" viewBox="0 0 32 32" width="32" xmlns="http://www.w3.org/2000/svg" xmlns:xlink="http://www.w3.org/1999/xlink"><linearGradient id="a" x1="48.951%" x2="48.951%" y1="98.951%" y2="1.049%"><stop offset="0" stop-color="#ffa9fe"/><stop offset=".33769" stop-color="#fafeaf"/><stop offset=".6812" stop-color="#c9fffe"/><stop offset="1" stop-color="#ffa9fe"/></linearGradient><g fill="none" fill-rule="evenodd"><rect fill="#fff" height="32" rx="16" width="32"/><path d="m22.7637849 15.4235214c0 1.8563429-.6789131 3.2739584-2.0367597 4.2528892s-3.0315308 1.4683889-5.0211028 1.4683889c-1.3941527 0-2.6938901-.3045517-3.8992512-.9136642-1.88791504-.9426741-2.8318584-2.4654325-2.8318584-4.5683209l-2.48332199.3045547c0 2.4654554.89311564 4.4631694 2.67937372 5.9932019 1.78625807 1.5300326 4.00815557 2.2950374 6.66575907 2.2950374 2.8463949 0 5.1263812-.8483939 6.8400272-2.5452073 1.7136459-1.6968134 2.5704561-3.7416604 2.5704561-6.1346023zm4.5309734-10.74643099c3.1368435 3.11807587 4.7052417 6.88871569 4.7052417 11.31203259 0 4.423317-1.5683982 8.1939568-4.7052417 11.3120327-3.1368434 3.1325785-6.919878 4.6988443-11.3492171 4.6988443-4.4148167 0-8.17606798-1.5662658-11.28386659-4.6988443-3.10779861-3.1180759-4.66167461-6.8887157-4.66167461-11.3120327 0-4.4233169 1.553876-8.19395672 4.66167461-11.31203259 3.10779861-3.11807586 6.86904989-4.67709041 11.28386659-4.67709041 4.4293391 0 8.2123737 1.55901455 11.3492171 4.67709041zm-6.9489448 8.76682529c.755166 0 1.3796208-.2465418 1.8733832-.7396329s.7406399-1.1094457.7406399-1.8490823c0-.7541392-.2468775-1.37774505-.7406399-1.87083612s-1.1182172-.7396329-1.8733832-.7396329c-.7406436 0-1.3542068.24654183-1.840708.7396329s-.7297481 1.11669692-.7297481 1.87083612c0 .7396366.2432469 1.3559912.7297481 1.8490823s1.1000644.7396329 1.840708.7396329zm-8.7134105 0c.755166 0 1.3796209-.2465418 1.8733832-.7396329.4937624-.4930911.7406399-1.1094457.7406399-1.8490823 0-.7541392-.2468775-1.37774505-.7406399-1.87083612-.4937623-.49309107-1.1182172-.7396329-1.8733832-.7396329-.7406436 0-1.3542068.24654183-1.84070797.7396329-.48650118.49309107-.72974813 1.11669692-.72974813 1.87083612 0 .7396366.24324695 1.3559912.72974813 1.8490823.48650117.4930911 1.10006437.7396329 1.84070797.7396329z" fill="url(#a)"/></g></svg>